# xmcd
#
# Track frame offsets:
#	150
#	14232
#	35012
#	48532
#	64109
#	81157
#	102360
#	114524
#	136112
#	153553
#	172038
#	188331
#	206071
#	229035
#	239538
#	256181
#	269145
#
# Disc length: 3854 seconds
#
# Revision: 1
# Processed by: cddbd v1.5.2PL0 Copyright (c) Steve Scherf et al.
# Submitted via: audiograbber 1.83.01
#
DISCID=f50f0c11
DTITLE=Russell Morris - Van Diemen's Land [CD2 Ghosts and legends)
DYEAR=2013
DGENRE=Blues
TTITLE0=Dexter's Big Tin Can
TTITLE1=Van Diemen's Land
TTITLE2=Sweetest Thing
TTITLE3=Birdsville
TTITLE4=Breaker Morant
TTITLE5=Loch Ard Gorge
TTITLE6=Burning Rodney
TTITLE7=The Witch Of King X
TTITLE8=Eureka
TTITLE9=Sandakan
TTITLE10=Slide On The River
TTITLE11=Lucy McBride
TTITLE12=Bendigo Rock
TTITLE13=Cobb and Co.
TTITLE14=Refugee Born
TTITLE15=Steel Ships
TTITLE16=Van Diemen's Land (acoustic version)
EXTD=
EXTT0=
EXTT1=
EXTT2=
EXTT3=
EXTT4=
EXTT5=
EXTT6=
EXTT7=
EXTT8=
EXTT9=
EXTT10=
EXTT11=
EXTT12=
EXTT13=
EXTT14=
EXTT15=
EXTT16=
PLAYORDER=
